<?xml version="1.0" encoding="UTF-8" standalone="no"?>
<!DOCTYPE svg PUBLIC "-//W3C//DTD SVG 1.1//EN"
 "http://www.w3.org/Graphics/SVG/1.1/DTD/svg11.dtd">
<!-- Generated by graphviz version 2.26.3 (20100126.1600)
 -->
<!-- Title: controllers_diagram Pages: 1 -->
<svg width="1573pt" height="1465pt"
 viewBox="0.00 0.00 1573.00 1465.00" xmlns="http://www.w3.org/2000/svg" xmlns:xlink="http://www.w3.org/1999/xlink">
<g id="graph1" class="graph" transform="scale(1 1) rotate(0) translate(4 1461)">
<title>controllers_diagram</title>
<polygon fill="white" stroke="white" points="-4,5 -4,-1461 1570,-1461 1570,5 -4,5"/>
<!-- _diagram_info -->
<g id="node1" class="node"><title>_diagram_info</title>
<text text-anchor="start" x="38" y="-1076.3" font-family="Times Roman,serif" font-size="13.00">Controllers diagram</text>
<text text-anchor="start" x="38" y="-1059.3" font-family="Times Roman,serif" font-size="13.00">Date: Jun 22 2012 &#45; 10:00</text>
<text text-anchor="start" x="38" y="-1042.3" font-family="Times Roman,serif" font-size="13.00">Generated by RailRoady 1.0.7</text>
<text text-anchor="start" x="38" y="-1025.3" font-family="Times Roman,serif" font-size="13.00">http://railroady.prestonlee.com</text>
</g>
<!-- GridfsController -->
<g id="node2" class="node"><title>GridfsController</title>
<polyline fill="none" stroke="black" points="1028,-88.5 1130,-88.5 "/>
<path fill="none" stroke="black" d="M1130,-88.5C1136,-88.5 1142,-94.5 1142,-100.5"/>
<polyline fill="none" stroke="black" points="1142,-100.5 1142,-178.5 "/>
<path fill="none" stroke="black" d="M1142,-178.5C1142,-184.5 1136,-190.5 1130,-190.5"/>
<polyline fill="none" stroke="black" points="1130,-190.5 1028,-190.5 "/>
<path fill="none" stroke="black" d="M1028,-190.5C1022,-190.5 1016,-184.5 1016,-178.5"/>
<polyline fill="none" stroke="black" points="1016,-178.5 1016,-100.5 "/>
<path fill="none" stroke="black" d="M1016,-100.5C1016,-94.5 1022,-88.5 1028,-88.5"/>
<text text-anchor="middle" x="1079" y="-173.9" font-family="Times Roman,serif" font-size="14.00">GridfsController</text>
<polyline fill="none" stroke="black" points="1016,-164.5 1142,-164.5 "/>
<text text-anchor="start" x="1024" y="-147.9" font-family="Times Roman,serif" font-size="14.00">serve</text>
<polyline fill="none" stroke="black" points="1016,-138.5 1142,-138.5 "/>
<polyline fill="none" stroke="black" points="1016,-114.5 1142,-114.5 "/>
<text text-anchor="start" x="1024" y="-97.9" font-family="Times Roman,serif" font-size="14.00">_layout</text>
</g>
<!-- MainAdminGroupOwnersController -->
<g id="node3" class="node"><title>MainAdminGroupOwnersController</title>
<polyline fill="none" stroke="black" points="1115,-465.5 1350,-465.5 "/>
<path fill="none" stroke="black" d="M1350,-465.5C1356,-465.5 1362,-471.5 1362,-477.5"/>
<polyline fill="none" stroke="black" points="1362,-477.5 1362,-699.5 "/>
<path fill="none" stroke="black" d="M1362,-699.5C1362,-705.5 1356,-711.5 1350,-711.5"/>
<polyline fill="none" stroke="black" points="1350,-711.5 1115,-711.5 "/>
<path fill="none" stroke="black" d="M1115,-711.5C1109,-711.5 1103,-705.5 1103,-699.5"/>
<polyline fill="none" stroke="black" points="1103,-699.5 1103,-477.5 "/>
<path fill="none" stroke="black" d="M1103,-477.5C1103,-471.5 1109,-465.5 1115,-465.5"/>
<text text-anchor="middle" x="1232.5" y="-694.9" font-family="Times Roman,serif" font-size="14.00">MainAdminGroupOwnersController</text>
<polyline fill="none" stroke="black" points="1103,-685.5 1362,-685.5 "/>
<text text-anchor="start" x="1111" y="-668.9" font-family="Times Roman,serif" font-size="14.00">_one_time_conditions_valid_103?</text>
<text text-anchor="start" x="1111" y="-650.9" font-family="Times Roman,serif" font-size="14.00">_one_time_conditions_valid_99?</text>
<text text-anchor="start" x="1111" y="-632.9" font-family="Times Roman,serif" font-size="14.00">all_workers</text>
<text text-anchor="start" x="1111" y="-614.9" font-family="Times Roman,serif" font-size="14.00">change_ownership</text>
<text text-anchor="start" x="1111" y="-596.9" font-family="Times Roman,serif" font-size="14.00">changed</text>
<text text-anchor="start" x="1111" y="-578.9" font-family="Times Roman,serif" font-size="14.00">index</text>
<text text-anchor="start" x="1111" y="-560.9" font-family="Times Roman,serif" font-size="14.00">related_ideas</text>
<text text-anchor="start" x="1111" y="-542.9" font-family="Times Roman,serif" font-size="14.00">should_be_GA</text>
<text text-anchor="start" x="1111" y="-524.9" font-family="Times Roman,serif" font-size="14.00">should_be_LA</text>
<polyline fill="none" stroke="black" points="1103,-515.5 1362,-515.5 "/>
<polyline fill="none" stroke="black" points="1103,-491.5 1362,-491.5 "/>
<text text-anchor="start" x="1111" y="-474.9" font-family="Times Roman,serif" font-size="14.00">_layout</text>
</g>
<!-- PasswordsController -->
<g id="node4" class="node"><title>PasswordsController</title>
<polyline fill="none" stroke="black" points="825,-233.5 1181,-233.5 "/>
<path fill="none" stroke="black" d="M1181,-233.5C1187,-233.5 1193,-239.5 1193,-245.5"/>
<polyline fill="none" stroke="black" points="1193,-245.5 1193,-397.5 "/>
<path fill="none" stroke="black" d="M1193,-397.5C1193,-403.5 1187,-409.5 1181,-409.5"/>
<polyline fill="none" stroke="black" points="1181,-409.5 825,-409.5 "/>
<path fill="none" stroke="black" d="M825,-409.5C819,-409.5 813,-403.5 813,-397.5"/>
<polyline fill="none" stroke="black" points="813,-397.5 813,-245.5 "/>
<path fill="none" stroke="black" d="M813,-245.5C813,-239.5 819,-233.5 825,-233.5"/>
<text text-anchor="middle" x="1003" y="-392.9" font-family="Times Roman,serif" font-size="14.00">PasswordsController</text>
<polyline fill="none" stroke="black" points="813,-383.5 1193,-383.5 "/>
<text text-anchor="start" x="821" y="-366.9" font-family="Times Roman,serif" font-size="14.00">_one_time_conditions_valid_111?</text>
<text text-anchor="start" x="821" y="-348.9" font-family="Times Roman,serif" font-size="14.00">create</text>
<text text-anchor="start" x="821" y="-330.9" font-family="Times Roman,serif" font-size="14.00">edit</text>
<text text-anchor="start" x="821" y="-312.9" font-family="Times Roman,serif" font-size="14.00">new</text>
<text text-anchor="start" x="821" y="-294.9" font-family="Times Roman,serif" font-size="14.00">update</text>
<polyline fill="none" stroke="black" points="813,-285.5 1193,-285.5 "/>
<text text-anchor="start" x="821" y="-268.9" font-family="Times Roman,serif" font-size="14.00">after_sending_reset_password_instructions_path_for</text>
<polyline fill="none" stroke="black" points="813,-259.5 1193,-259.5 "/>
<text text-anchor="start" x="821" y="-242.9" font-family="Times Roman,serif" font-size="14.00">_layout</text>
</g>
<!-- OmniauthCallbacksController -->
<g id="node5" class="node"><title>OmniauthCallbacksController</title>
<polyline fill="none" stroke="black" points="42,-1132.5 236,-1132.5 "/>
<path fill="none" stroke="black" d="M236,-1132.5C242,-1132.5 248,-1138.5 248,-1144.5"/>
<polyline fill="none" stroke="black" points="248,-1144.5 248,-1222.5 "/>
<path fill="none" stroke="black" d="M248,-1222.5C248,-1228.5 242,-1234.5 236,-1234.5"/>
<polyline fill="none" stroke="black" points="236,-1234.5 42,-1234.5 "/>
<path fill="none" stroke="black" d="M42,-1234.5C36,-1234.5 30,-1228.5 30,-1222.5"/>
<polyline fill="none" stroke="black" points="30,-1222.5 30,-1144.5 "/>
<path fill="none" stroke="black" d="M30,-1144.5C30,-1138.5 36,-1132.5 42,-1132.5"/>
<text text-anchor="middle" x="139" y="-1217.9" font-family="Times Roman,serif" font-size="14.00">OmniauthCallbacksController</text>
<polyline fill="none" stroke="black" points="30,-1208.5 248,-1208.5 "/>
<text text-anchor="start" x="38" y="-1191.9" font-family="Times Roman,serif" font-size="14.00">facebook</text>
<polyline fill="none" stroke="black" points="30,-1182.5 248,-1182.5 "/>
<polyline fill="none" stroke="black" points="30,-1158.5 248,-1158.5 "/>
<text text-anchor="start" x="38" y="-1141.9" font-family="Times Roman,serif" font-size="14.00">_layout</text>
</g>
<!-- PeopleController -->
<g id="node6" class="node"><title>PeopleController</title>
<polyline fill="none" stroke="black" points="1202,-1074.5 1430,-1074.5 "/>
<path fill="none" stroke="black" d="M1430,-1074.5C1436,-1074.5 1442,-1080.5 1442,-1086.5"/>
<polyline fill="none" stroke="black" points="1442,-1086.5 1442,-1274.5 "/>
<path fill="none" stroke="black" d="M1442,-1274.5C1442,-1280.5 1436,-1286.5 1430,-1286.5"/>
<polyline fill="none" stroke="black" points="1430,-1286.5 1202,-1286.5 "/>
<path fill="none" stroke="black" d="M1202,-1286.5C1196,-1286.5 1190,-1280.5 1190,-1274.5"/>
<polyline fill="none" stroke="black" points="1190,-1274.5 1190,-1086.5 "/>
<path fill="none" stroke="black" d="M1190,-1086.5C1190,-1080.5 1196,-1074.5 1202,-1074.5"/>
<text text-anchor="middle" x="1316" y="-1269.9" font-family="Times Roman,serif" font-size="14.00">PeopleController</text>
<polyline fill="none" stroke="black" points="1190,-1260.5 1442,-1260.5 "/>
<text text-anchor="start" x="1198" y="-1243.9" font-family="Times Roman,serif" font-size="14.00">_one_time_conditions_valid_113?</text>
<text text-anchor="start" x="1198" y="-1225.9" font-family="Times Roman,serif" font-size="14.00">_one_time_conditions_valid_115?</text>
<text text-anchor="start" x="1198" y="-1207.9" font-family="Times Roman,serif" font-size="14.00">edit</text>
<text text-anchor="start" x="1198" y="-1189.9" font-family="Times Roman,serif" font-size="14.00">provider_terms_of_service</text>
<text text-anchor="start" x="1198" y="-1171.9" font-family="Times Roman,serif" font-size="14.00">show</text>
<text text-anchor="start" x="1198" y="-1153.9" font-family="Times Roman,serif" font-size="14.00">update</text>
<text text-anchor="start" x="1198" y="-1135.9" font-family="Times Roman,serif" font-size="14.00">update_provider_terms_of_service</text>
<polyline fill="none" stroke="black" points="1190,-1126.5 1442,-1126.5 "/>
<text text-anchor="start" x="1198" y="-1109.9" font-family="Times Roman,serif" font-size="14.00">get_user</text>
<polyline fill="none" stroke="black" points="1190,-1100.5 1442,-1100.5 "/>
<text text-anchor="start" x="1198" y="-1083.9" font-family="Times Roman,serif" font-size="14.00">_layout</text>
</g>
<!-- BusinessGroupsController -->
<g id="node7" class="node"><title>BusinessGroupsController</title>
<polyline fill="none" stroke="black" points="129,-117.5 352,-117.5 "/>
<path fill="none" stroke="black" d="M352,-117.5C358,-117.5 364,-123.5 364,-129.5"/>
<polyline fill="none" stroke="black" points="364,-129.5 364,-297.5 "/>
<path fill="none" stroke="black" d="M364,-297.5C364,-303.5 358,-309.5 352,-309.5"/>
<polyline fill="none" stroke="black" points="352,-309.5 129,-309.5 "/>
<path fill="none" stroke="black" d="M129,-309.5C123,-309.5 117,-303.5 117,-297.5"/>
<polyline fill="none" stroke="black" points="117,-297.5 117,-129.5 "/>
<path fill="none" stroke="black" d="M117,-129.5C117,-123.5 123,-117.5 129,-117.5"/>
<text text-anchor="middle" x="240.5" y="-292.9" font-family="Times Roman,serif" font-size="14.00">BusinessGroupsController</text>
<polyline fill="none" stroke="black" points="117,-283.5 364,-283.5 "/>
<text text-anchor="start" x="125" y="-266.9" font-family="Times Roman,serif" font-size="14.00">_one_time_conditions_valid_119?</text>
<text text-anchor="start" x="125" y="-248.9" font-family="Times Roman,serif" font-size="14.00">create</text>
<text text-anchor="start" x="125" y="-230.9" font-family="Times Roman,serif" font-size="14.00">my_keys</text>
<text text-anchor="start" x="125" y="-212.9" font-family="Times Roman,serif" font-size="14.00">new</text>
<text text-anchor="start" x="125" y="-194.9" font-family="Times Roman,serif" font-size="14.00">related_ideas</text>
<polyline fill="none" stroke="black" points="117,-185.5 364,-185.5 "/>
<polyline fill="none" stroke="black" points="117,-161.5 364,-161.5 "/>
<text text-anchor="start" x="125" y="-144.9" font-family="Times Roman,serif" font-size="14.00">_layout</text>
<text text-anchor="start" x="125" y="-126.9" font-family="Times Roman,serif" font-size="14.00">should_be_admin_group_owner</text>
</g>
<!-- IdeasController -->
<g id="node8" class="node"><title>IdeasController</title>
<polyline fill="none" stroke="black" points="622,-1016.5 845,-1016.5 "/>
<path fill="none" stroke="black" d="M845,-1016.5C851,-1016.5 857,-1022.5 857,-1028.5"/>
<polyline fill="none" stroke="black" points="857,-1028.5 857,-1340.5 "/>
<path fill="none" stroke="black" d="M857,-1340.5C857,-1346.5 851,-1352.5 845,-1352.5"/>
<polyline fill="none" stroke="black" points="845,-1352.5 622,-1352.5 "/>
<path fill="none" stroke="black" d="M622,-1352.5C616,-1352.5 610,-1346.5 610,-1340.5"/>
<polyline fill="none" stroke="black" points="610,-1340.5 610,-1028.5 "/>
<path fill="none" stroke="black" d="M610,-1028.5C610,-1022.5 616,-1016.5 622,-1016.5"/>
<text text-anchor="middle" x="733.5" y="-1335.9" font-family="Times Roman,serif" font-size="14.00">IdeasController</text>
<polyline fill="none" stroke="black" points="610,-1326.5 857,-1326.5 "/>
<text text-anchor="start" x="618" y="-1309.9" font-family="Times Roman,serif" font-size="14.00">_one_time_conditions_valid_263?</text>
<text text-anchor="start" x="618" y="-1291.9" font-family="Times Roman,serif" font-size="14.00">_one_time_conditions_valid_265?</text>
<text text-anchor="start" x="618" y="-1273.9" font-family="Times Roman,serif" font-size="14.00">create</text>
<text text-anchor="start" x="618" y="-1255.9" font-family="Times Roman,serif" font-size="14.00">decline</text>
<text text-anchor="start" x="618" y="-1237.9" font-family="Times Roman,serif" font-size="14.00">destroy</text>
<text text-anchor="start" x="618" y="-1219.9" font-family="Times Roman,serif" font-size="14.00">edit</text>
<text text-anchor="start" x="618" y="-1201.9" font-family="Times Roman,serif" font-size="14.00">index</text>
<text text-anchor="start" x="618" y="-1183.9" font-family="Times Roman,serif" font-size="14.00">make_it_good</text>
<text text-anchor="start" x="618" y="-1165.9" font-family="Times Roman,serif" font-size="14.00">my_own_project</text>
<text text-anchor="start" x="618" y="-1147.9" font-family="Times Roman,serif" font-size="14.00">new</text>
<text text-anchor="start" x="618" y="-1129.9" font-family="Times Roman,serif" font-size="14.00">reject</text>
<text text-anchor="start" x="618" y="-1111.9" font-family="Times Roman,serif" font-size="14.00">show</text>
<text text-anchor="start" x="618" y="-1093.9" font-family="Times Roman,serif" font-size="14.00">show_good_idea</text>
<text text-anchor="start" x="618" y="-1075.9" font-family="Times Roman,serif" font-size="14.00">update</text>
<polyline fill="none" stroke="black" points="610,-1066.5 857,-1066.5 "/>
<polyline fill="none" stroke="black" points="610,-1042.5 857,-1042.5 "/>
<text text-anchor="start" x="618" y="-1025.9" font-family="Times Roman,serif" font-size="14.00">_layout</text>
</g>
<!-- AdminGroupWorkersController -->
<g id="node9" class="node"><title>AdminGroupWorkersController</title>
<polyline fill="none" stroke="black" points="1347,-1335.5 1552,-1335.5 "/>
<path fill="none" stroke="black" d="M1552,-1335.5C1558,-1335.5 1564,-1341.5 1564,-1347.5"/>
<polyline fill="none" stroke="black" points="1564,-1347.5 1564,-1443.5 "/>
<path fill="none" stroke="black" d="M1564,-1443.5C1564,-1449.5 1558,-1455.5 1552,-1455.5"/>
<polyline fill="none" stroke="black" points="1552,-1455.5 1347,-1455.5 "/>
<path fill="none" stroke="black" d="M1347,-1455.5C1341,-1455.5 1335,-1449.5 1335,-1443.5"/>
<polyline fill="none" stroke="black" points="1335,-1443.5 1335,-1347.5 "/>
<path fill="none" stroke="black" d="M1335,-1347.5C1335,-1341.5 1341,-1335.5 1347,-1335.5"/>
<text text-anchor="middle" x="1449.5" y="-1438.9" font-family="Times Roman,serif" font-size="14.00">AdminGroupWorkersController</text>
<polyline fill="none" stroke="black" points="1335,-1429.5 1564,-1429.5 "/>
<text text-anchor="start" x="1343" y="-1412.9" font-family="Times Roman,serif" font-size="14.00">create_admin_group_worker</text>
<text text-anchor="start" x="1343" y="-1394.9" font-family="Times Roman,serif" font-size="14.00">new_admin_group_workers</text>
<polyline fill="none" stroke="black" points="1335,-1385.5 1564,-1385.5 "/>
<polyline fill="none" stroke="black" points="1335,-1361.5 1564,-1361.5 "/>
<text text-anchor="start" x="1343" y="-1344.9" font-family="Times Roman,serif" font-size="14.00">_layout</text>
</g>
<!-- HomesController -->
<g id="node10" class="node"><title>HomesController</title>
<polyline fill="none" stroke="black" points="216,-349.5 439,-349.5 "/>
<path fill="none" stroke="black" d="M439,-349.5C445,-349.5 451,-355.5 451,-361.5"/>
<polyline fill="none" stroke="black" points="451,-361.5 451,-583.5 "/>
<path fill="none" stroke="black" d="M451,-583.5C451,-589.5 445,-595.5 439,-595.5"/>
<polyline fill="none" stroke="black" points="439,-595.5 216,-595.5 "/>
<path fill="none" stroke="black" d="M216,-595.5C210,-595.5 204,-589.5 204,-583.5"/>
<polyline fill="none" stroke="black" points="204,-583.5 204,-361.5 "/>
<path fill="none" stroke="black" d="M204,-361.5C204,-355.5 210,-349.5 216,-349.5"/>
<text text-anchor="middle" x="327.5" y="-578.9" font-family="Times Roman,serif" font-size="14.00">HomesController</text>
<polyline fill="none" stroke="black" points="204,-569.5 451,-569.5 "/>
<text text-anchor="start" x="212" y="-552.9" font-family="Times Roman,serif" font-size="14.00">_one_time_conditions_valid_267?</text>
<text text-anchor="start" x="212" y="-534.9" font-family="Times Roman,serif" font-size="14.00">get_hominid</text>
<text text-anchor="start" x="212" y="-516.9" font-family="Times Roman,serif" font-size="14.00">index</text>
<text text-anchor="start" x="212" y="-498.9" font-family="Times Roman,serif" font-size="14.00">news_letter</text>
<text text-anchor="start" x="212" y="-480.9" font-family="Times Roman,serif" font-size="14.00">persist_news_letter</text>
<text text-anchor="start" x="212" y="-462.9" font-family="Times Roman,serif" font-size="14.00">resend_varification_mail</text>
<text text-anchor="start" x="212" y="-444.9" font-family="Times Roman,serif" font-size="14.00">send_news_letter</text>
<text text-anchor="start" x="212" y="-426.9" font-family="Times Roman,serif" font-size="14.00">send_news_letter_page</text>
<text text-anchor="start" x="212" y="-408.9" font-family="Times Roman,serif" font-size="14.00">show_error_msg</text>
<polyline fill="none" stroke="black" points="204,-399.5 451,-399.5 "/>
<polyline fill="none" stroke="black" points="204,-375.5 451,-375.5 "/>
<text text-anchor="start" x="212" y="-358.9" font-family="Times Roman,serif" font-size="14.00">_layout</text>
</g>
<!-- ProfilesController -->
<g id="node11" class="node"><title>ProfilesController</title>
<polyline fill="none" stroke="black" points="419,-59.5 642,-59.5 "/>
<path fill="none" stroke="black" d="M642,-59.5C648,-59.5 654,-65.5 654,-71.5"/>
<polyline fill="none" stroke="black" points="654,-71.5 654,-239.5 "/>
<path fill="none" stroke="black" d="M654,-239.5C654,-245.5 648,-251.5 642,-251.5"/>
<polyline fill="none" stroke="black" points="642,-251.5 419,-251.5 "/>
<path fill="none" stroke="black" d="M419,-251.5C413,-251.5 407,-245.5 407,-239.5"/>
<polyline fill="none" stroke="black" points="407,-239.5 407,-71.5 "/>
<path fill="none" stroke="black" d="M407,-71.5C407,-65.5 413,-59.5 419,-59.5"/>
<text text-anchor="middle" x="530.5" y="-234.9" font-family="Times Roman,serif" font-size="14.00">ProfilesController</text>
<polyline fill="none" stroke="black" points="407,-225.5 654,-225.5 "/>
<text text-anchor="start" x="415" y="-208.9" font-family="Times Roman,serif" font-size="14.00">_one_time_conditions_valid_311?</text>
<text text-anchor="start" x="415" y="-190.9" font-family="Times Roman,serif" font-size="14.00">_one_time_conditions_valid_313?</text>
<text text-anchor="start" x="415" y="-172.9" font-family="Times Roman,serif" font-size="14.00">create</text>
<text text-anchor="start" x="415" y="-154.9" font-family="Times Roman,serif" font-size="14.00">edit</text>
<text text-anchor="start" x="415" y="-136.9" font-family="Times Roman,serif" font-size="14.00">new</text>
<text text-anchor="start" x="415" y="-118.9" font-family="Times Roman,serif" font-size="14.00">update</text>
<polyline fill="none" stroke="black" points="407,-109.5 654,-109.5 "/>
<polyline fill="none" stroke="black" points="407,-85.5 654,-85.5 "/>
<text text-anchor="start" x="415" y="-68.9" font-family="Times Roman,serif" font-size="14.00">_layout</text>
</g>
<!-- SessionsController -->
<g id="node12" class="node"><title>SessionsController</title>
<polyline fill="none" stroke="black" points="1260,-30.5 1483,-30.5 "/>
<path fill="none" stroke="black" d="M1483,-30.5C1489,-30.5 1495,-36.5 1495,-42.5"/>
<polyline fill="none" stroke="black" points="1495,-42.5 1495,-212.5 "/>
<path fill="none" stroke="black" d="M1495,-212.5C1495,-218.5 1489,-224.5 1483,-224.5"/>
<polyline fill="none" stroke="black" points="1483,-224.5 1260,-224.5 "/>
<path fill="none" stroke="black" d="M1260,-224.5C1254,-224.5 1248,-218.5 1248,-212.5"/>
<polyline fill="none" stroke="black" points="1248,-212.5 1248,-42.5 "/>
<path fill="none" stroke="black" d="M1248,-42.5C1248,-36.5 1254,-30.5 1260,-30.5"/>
<text text-anchor="middle" x="1371.5" y="-207.9" font-family="Times Roman,serif" font-size="14.00">SessionsController</text>
<polyline fill="none" stroke="black" points="1248,-198.5 1495,-198.5 "/>
<text text-anchor="start" x="1256" y="-181.9" font-family="Times Roman,serif" font-size="14.00">_one_time_conditions_valid_323?</text>
<text text-anchor="start" x="1256" y="-163.9" font-family="Times Roman,serif" font-size="14.00">_one_time_conditions_valid_327?</text>
<text text-anchor="start" x="1256" y="-145.9" font-family="Times Roman,serif" font-size="14.00">create</text>
<text text-anchor="start" x="1256" y="-127.9" font-family="Times Roman,serif" font-size="14.00">destroy</text>
<text text-anchor="start" x="1256" y="-109.9" font-family="Times Roman,serif" font-size="14.00">new</text>
<polyline fill="none" stroke="black" points="1248,-100.5 1495,-100.5 "/>
<text text-anchor="start" x="1256" y="-83.9" font-family="Times Roman,serif" font-size="14.00">auth_options</text>
<text text-anchor="start" x="1256" y="-65.9" font-family="Times Roman,serif" font-size="14.00">serialize_options</text>
<polyline fill="none" stroke="black" points="1248,-56.5 1495,-56.5 "/>
<text text-anchor="start" x="1256" y="-39.9" font-family="Times Roman,serif" font-size="14.00">_layout</text>
</g>
<!-- ConfirmationsController -->
<g id="node13" class="node"><title>ConfirmationsController</title>
<polyline fill="none" stroke="black" points="13,-1277.5 217,-1277.5 "/>
<path fill="none" stroke="black" d="M217,-1277.5C223,-1277.5 229,-1283.5 229,-1289.5"/>
<polyline fill="none" stroke="black" points="229,-1289.5 229,-1441.5 "/>
<path fill="none" stroke="black" d="M229,-1441.5C229,-1447.5 223,-1453.5 217,-1453.5"/>
<polyline fill="none" stroke="black" points="217,-1453.5 13,-1453.5 "/>
<path fill="none" stroke="black" d="M13,-1453.5C7,-1453.5 1,-1447.5 1,-1441.5"/>
<polyline fill="none" stroke="black" points="1,-1441.5 1,-1289.5 "/>
<path fill="none" stroke="black" d="M1,-1289.5C1,-1283.5 7,-1277.5 13,-1277.5"/>
<text text-anchor="middle" x="115" y="-1436.9" font-family="Times Roman,serif" font-size="14.00">ConfirmationsController</text>
<polyline fill="none" stroke="black" points="1,-1427.5 229,-1427.5 "/>
<text text-anchor="start" x="9" y="-1410.9" font-family="Times Roman,serif" font-size="14.00">new</text>
<text text-anchor="start" x="9" y="-1392.9" font-family="Times Roman,serif" font-size="14.00">show</text>
<text text-anchor="start" x="9" y="-1374.9" font-family="Times Roman,serif" font-size="14.00">update</text>
<polyline fill="none" stroke="black" points="1,-1365.5 229,-1365.5 "/>
<text text-anchor="start" x="9" y="-1348.9" font-family="Times Roman,serif" font-size="14.00">do_confirm</text>
<text text-anchor="start" x="9" y="-1330.9" font-family="Times Roman,serif" font-size="14.00">do_show</text>
<text text-anchor="start" x="9" y="-1312.9" font-family="Times Roman,serif" font-size="14.00">with_unconfirmed_confirmable</text>
<polyline fill="none" stroke="black" points="1,-1303.5 229,-1303.5 "/>
<text text-anchor="start" x="9" y="-1286.9" font-family="Times Roman,serif" font-size="14.00">_layout</text>
</g>
<!-- ApplicationController -->
<g id="node14" class="node"><title>ApplicationController</title>
<polyline fill="none" stroke="black" points="1202,-755.5 1416,-755.5 "/>
<path fill="none" stroke="black" d="M1416,-755.5C1422,-755.5 1428,-761.5 1428,-767.5"/>
<polyline fill="none" stroke="black" points="1428,-767.5 1428,-1009.5 "/>
<path fill="none" stroke="black" d="M1428,-1009.5C1428,-1015.5 1422,-1021.5 1416,-1021.5"/>
<polyline fill="none" stroke="black" points="1416,-1021.5 1202,-1021.5 "/>
<path fill="none" stroke="black" d="M1202,-1021.5C1196,-1021.5 1190,-1015.5 1190,-1009.5"/>
<polyline fill="none" stroke="black" points="1190,-1009.5 1190,-767.5 "/>
<path fill="none" stroke="black" d="M1190,-767.5C1190,-761.5 1196,-755.5 1202,-755.5"/>
<text text-anchor="middle" x="1309" y="-1004.9" font-family="Times Roman,serif" font-size="14.00">ApplicationController</text>
<polyline fill="none" stroke="black" points="1190,-995.5 1428,-995.5 "/>
<text text-anchor="start" x="1198" y="-978.9" font-family="Times Roman,serif" font-size="14.00">_one_time_conditions_valid_97?</text>
<text text-anchor="start" x="1198" y="-960.9" font-family="Times Roman,serif" font-size="14.00">after_sign_in_path_for</text>
<text text-anchor="start" x="1198" y="-942.9" font-family="Times Roman,serif" font-size="14.00">fetch_county_name</text>
<text text-anchor="start" x="1198" y="-924.9" font-family="Times Roman,serif" font-size="14.00">should_be_user</text>
<polyline fill="none" stroke="black" points="1190,-915.5 1428,-915.5 "/>
<text text-anchor="start" x="1198" y="-898.9" font-family="Times Roman,serif" font-size="14.00">canceled_user</text>
<text text-anchor="start" x="1198" y="-880.9" font-family="Times Roman,serif" font-size="14.00">change_idea_status</text>
<text text-anchor="start" x="1198" y="-862.9" font-family="Times Roman,serif" font-size="14.00">check_is_admin_host_present?</text>
<text text-anchor="start" x="1198" y="-844.9" font-family="Times Roman,serif" font-size="14.00">format_birth_date</text>
<text text-anchor="start" x="1198" y="-826.9" font-family="Times Roman,serif" font-size="14.00">get_user</text>
<text text-anchor="start" x="1198" y="-808.9" font-family="Times Roman,serif" font-size="14.00">start_debugging</text>
<text text-anchor="start" x="1198" y="-790.9" font-family="Times Roman,serif" font-size="14.00">toggle_user</text>
<polyline fill="none" stroke="black" points="1190,-781.5 1428,-781.5 "/>
<text text-anchor="start" x="1198" y="-764.9" font-family="Times Roman,serif" font-size="14.00">_layout</text>
</g>
<!-- Admin::MainLocalAdminsController -->
<g id="node15" class="node"><title>Admin::MainLocalAdminsController</title>
<polyline fill="none" stroke="black" points="303,-1016.5 542,-1016.5 "/>
<path fill="none" stroke="black" d="M542,-1016.5C548,-1016.5 554,-1022.5 554,-1028.5"/>
<polyline fill="none" stroke="black" points="554,-1028.5 554,-1322.5 "/>
<path fill="none" stroke="black" d="M554,-1322.5C554,-1328.5 548,-1334.5 542,-1334.5"/>
<polyline fill="none" stroke="black" points="542,-1334.5 303,-1334.5 "/>
<path fill="none" stroke="black" d="M303,-1334.5C297,-1334.5 291,-1328.5 291,-1322.5"/>
<polyline fill="none" stroke="black" points="291,-1322.5 291,-1028.5 "/>
<path fill="none" stroke="black" d="M291,-1028.5C291,-1022.5 297,-1016.5 303,-1016.5"/>
<text text-anchor="middle" x="422.5" y="-1317.9" font-family="Times Roman,serif" font-size="14.00">Admin::MainLocalAdminsController</text>
<polyline fill="none" stroke="black" points="291,-1308.5 554,-1308.5 "/>
<text text-anchor="start" x="299" y="-1291.9" font-family="Times Roman,serif" font-size="14.00">_one_time_conditions_valid_331?</text>
<text text-anchor="start" x="299" y="-1273.9" font-family="Times Roman,serif" font-size="14.00">all_users</text>
<text text-anchor="start" x="299" y="-1255.9" font-family="Times Roman,serif" font-size="14.00">autocomplete_country_detail_name</text>
<text text-anchor="start" x="299" y="-1237.9" font-family="Times Roman,serif" font-size="14.00">canceled_user_account</text>
<text text-anchor="start" x="299" y="-1219.9" font-family="Times Roman,serif" font-size="14.00">change_idea_status_by_mla</text>
<text text-anchor="start" x="299" y="-1201.9" font-family="Times Roman,serif" font-size="14.00">edit_user_info_mla</text>
<text text-anchor="start" x="299" y="-1183.9" font-family="Times Roman,serif" font-size="14.00">ideas_belonging_to_users</text>
<text text-anchor="start" x="299" y="-1165.9" font-family="Times Roman,serif" font-size="14.00">listing_good_ideas</text>
<text text-anchor="start" x="299" y="-1147.9" font-family="Times Roman,serif" font-size="14.00">listing_projects</text>
<text text-anchor="start" x="299" y="-1129.9" font-family="Times Roman,serif" font-size="14.00">show_user_to_main_local_admin</text>
<text text-anchor="start" x="299" y="-1111.9" font-family="Times Roman,serif" font-size="14.00">suspend_user_by_mla</text>
<text text-anchor="start" x="299" y="-1093.9" font-family="Times Roman,serif" font-size="14.00">update_user_info_by_mla</text>
<polyline fill="none" stroke="black" points="291,-1084.5 554,-1084.5 "/>
<polyline fill="none" stroke="black" points="291,-1060.5 554,-1060.5 "/>
<text text-anchor="start" x="299" y="-1043.9" font-family="Times Roman,serif" font-size="14.00">_layout</text>
<text text-anchor="start" x="299" y="-1025.9" font-family="Times Roman,serif" font-size="14.00">get_all_users</text>
</g>
<!-- Admin::LocalAdminsController -->
<g id="node16" class="node"><title>Admin::LocalAdminsController</title>
<polyline fill="none" stroke="black" points="506,-291.5 745,-291.5 "/>
<path fill="none" stroke="black" d="M745,-291.5C751,-291.5 757,-297.5 757,-303.5"/>
<polyline fill="none" stroke="black" points="757,-303.5 757,-957.5 "/>
<path fill="none" stroke="black" d="M757,-957.5C757,-963.5 751,-969.5 745,-969.5"/>
<polyline fill="none" stroke="black" points="745,-969.5 506,-969.5 "/>
<path fill="none" stroke="black" d="M506,-969.5C500,-969.5 494,-963.5 494,-957.5"/>
<polyline fill="none" stroke="black" points="494,-957.5 494,-303.5 "/>
<path fill="none" stroke="black" d="M494,-303.5C494,-297.5 500,-291.5 506,-291.5"/>
<text text-anchor="middle" x="625.5" y="-952.9" font-family="Times Roman,serif" font-size="14.00">Admin::LocalAdminsController</text>
<polyline fill="none" stroke="black" points="494,-943.5 757,-943.5 "/>
<text text-anchor="start" x="502" y="-926.9" font-family="Times Roman,serif" font-size="14.00">_one_time_conditions_valid_333?</text>
<text text-anchor="start" x="502" y="-908.9" font-family="Times Roman,serif" font-size="14.00">_one_time_conditions_valid_337?</text>
<text text-anchor="start" x="502" y="-890.9" font-family="Times Roman,serif" font-size="14.00">_one_time_conditions_valid_341?</text>
<text text-anchor="start" x="502" y="-872.9" font-family="Times Roman,serif" font-size="14.00">_one_time_conditions_valid_345?</text>
<text text-anchor="start" x="502" y="-854.9" font-family="Times Roman,serif" font-size="14.00">add_new_slave_admin_group</text>
<text text-anchor="start" x="502" y="-836.9" font-family="Times Roman,serif" font-size="14.00">admin_group_creation</text>
<text text-anchor="start" x="502" y="-818.9" font-family="Times Roman,serif" font-size="14.00">all_users_globally</text>
<text text-anchor="start" x="502" y="-800.9" font-family="Times Roman,serif" font-size="14.00">autocomplete_country_detail_name</text>
<text text-anchor="start" x="502" y="-782.9" font-family="Times Roman,serif" font-size="14.00">autocomplete_language_name</text>
<text text-anchor="start" x="502" y="-764.9" font-family="Times Roman,serif" font-size="14.00">canceled_user_account_from_la</text>
<text text-anchor="start" x="502" y="-746.9" font-family="Times Roman,serif" font-size="14.00">change_admin_role</text>
<text text-anchor="start" x="502" y="-728.9" font-family="Times Roman,serif" font-size="14.00">change_ago_to_mago</text>
<text text-anchor="start" x="502" y="-710.9" font-family="Times Roman,serif" font-size="14.00">check_for_existing_user</text>
<text text-anchor="start" x="502" y="-692.9" font-family="Times Roman,serif" font-size="14.00">create_local_admin</text>
<text text-anchor="start" x="502" y="-674.9" font-family="Times Roman,serif" font-size="14.00">edit_local_admin</text>
<text text-anchor="start" x="502" y="-656.9" font-family="Times Roman,serif" font-size="14.00">edit_user_info_from_la</text>
<text text-anchor="start" x="502" y="-638.9" font-family="Times Roman,serif" font-size="14.00">listing_all_the_workers</text>
<text text-anchor="start" x="502" y="-620.9" font-family="Times Roman,serif" font-size="14.00">manage_admin_group</text>
<text text-anchor="start" x="502" y="-602.9" font-family="Times Roman,serif" font-size="14.00">my_settings</text>
<text text-anchor="start" x="502" y="-584.9" font-family="Times Roman,serif" font-size="14.00">new_local_admin</text>
<text text-anchor="start" x="502" y="-566.9" font-family="Times Roman,serif" font-size="14.00">show_AGO_for_change_role</text>
<text text-anchor="start" x="502" y="-548.9" font-family="Times Roman,serif" font-size="14.00">show_admin</text>
<text text-anchor="start" x="502" y="-530.9" font-family="Times Roman,serif" font-size="14.00">show_local_admin</text>
<text text-anchor="start" x="502" y="-512.9" font-family="Times Roman,serif" font-size="14.00">suspend_user_by_la</text>
<text text-anchor="start" x="502" y="-494.9" font-family="Times Roman,serif" font-size="14.00">teams_management</text>
<text text-anchor="start" x="502" y="-476.9" font-family="Times Roman,serif" font-size="14.00">update_local_admin</text>
<text text-anchor="start" x="502" y="-458.9" font-family="Times Roman,serif" font-size="14.00">update_my_setting</text>
<text text-anchor="start" x="502" y="-440.9" font-family="Times Roman,serif" font-size="14.00">update_user_info_from_la</text>
<polyline fill="none" stroke="black" points="494,-431.5 757,-431.5 "/>
<polyline fill="none" stroke="black" points="494,-407.5 757,-407.5 "/>
<text text-anchor="start" x="502" y="-390.9" font-family="Times Roman,serif" font-size="14.00">_layout</text>
<text text-anchor="start" x="502" y="-372.9" font-family="Times Roman,serif" font-size="14.00">change_to_MAGO</text>
<text text-anchor="start" x="502" y="-354.9" font-family="Times Roman,serif" font-size="14.00">should_be_GA</text>
<text text-anchor="start" x="502" y="-336.9" font-family="Times Roman,serif" font-size="14.00">should_not_be_fake_country</text>
<text text-anchor="start" x="502" y="-318.9" font-family="Times Roman,serif" font-size="14.00">should_not_be_fake_language</text>
<text text-anchor="start" x="502" y="-300.9" font-family="Times Roman,serif" font-size="14.00">toggle_admin</text>
</g>
<!-- Admin::GlobalAdminsController -->
<g id="node17" class="node"><title>Admin::GlobalAdminsController</title>
<polyline fill="none" stroke="black" points="216,-639.5 439,-639.5 "/>
<path fill="none" stroke="black" d="M439,-639.5C445,-639.5 451,-645.5 451,-651.5"/>
<polyline fill="none" stroke="black" points="451,-651.5 451,-909.5 "/>
<path fill="none" stroke="black" d="M451,-909.5C451,-915.5 445,-921.5 439,-921.5"/>
<polyline fill="none" stroke="black" points="439,-921.5 216,-921.5 "/>
<path fill="none" stroke="black" d="M216,-921.5C210,-921.5 204,-915.5 204,-909.5"/>
<polyline fill="none" stroke="black" points="204,-909.5 204,-651.5 "/>
<path fill="none" stroke="black" d="M204,-651.5C204,-645.5 210,-639.5 216,-639.5"/>
<text text-anchor="middle" x="327.5" y="-904.9" font-family="Times Roman,serif" font-size="14.00">Admin::GlobalAdminsController</text>
<polyline fill="none" stroke="black" points="204,-895.5 451,-895.5 "/>
<text text-anchor="start" x="212" y="-878.9" font-family="Times Roman,serif" font-size="14.00">_one_time_conditions_valid_347?</text>
<text text-anchor="start" x="212" y="-860.9" font-family="Times Roman,serif" font-size="14.00">_one_time_conditions_valid_349?</text>
<text text-anchor="start" x="212" y="-842.9" font-family="Times Roman,serif" font-size="14.00">all_admins</text>
<text text-anchor="start" x="212" y="-824.9" font-family="Times Roman,serif" font-size="14.00">autocomplete_language_name</text>
<text text-anchor="start" x="212" y="-806.9" font-family="Times Roman,serif" font-size="14.00">edit_general_settings</text>
<text text-anchor="start" x="212" y="-788.9" font-family="Times Roman,serif" font-size="14.00">ideas</text>
<text text-anchor="start" x="212" y="-770.9" font-family="Times Roman,serif" font-size="14.00">main_admin_group_mgmt</text>
<text text-anchor="start" x="212" y="-752.9" font-family="Times Roman,serif" font-size="14.00">should_be_global_admin</text>
<text text-anchor="start" x="212" y="-734.9" font-family="Times Roman,serif" font-size="14.00">should_not_be_fake_language</text>
<text text-anchor="start" x="212" y="-716.9" font-family="Times Roman,serif" font-size="14.00">slave_admin_group_mgmt</text>
<text text-anchor="start" x="212" y="-698.9" font-family="Times Roman,serif" font-size="14.00">update_general_settings</text>
<polyline fill="none" stroke="black" points="204,-689.5 451,-689.5 "/>
<polyline fill="none" stroke="black" points="204,-665.5 451,-665.5 "/>
<text text-anchor="start" x="212" y="-648.9" font-family="Times Roman,serif" font-size="14.00">_layout</text>
</g>
<!-- UsersController -->
<g id="node18" class="node"><title>UsersController</title>
<polyline fill="none" stroke="black" points="825,-465.5 1048,-465.5 "/>
<path fill="none" stroke="black" d="M1048,-465.5C1054,-465.5 1060,-471.5 1060,-477.5"/>
<polyline fill="none" stroke="black" points="1060,-477.5 1060,-843.5 "/>
<path fill="none" stroke="black" d="M1060,-843.5C1060,-849.5 1054,-855.5 1048,-855.5"/>
<polyline fill="none" stroke="black" points="1048,-855.5 825,-855.5 "/>
<path fill="none" stroke="black" d="M825,-855.5C819,-855.5 813,-849.5 813,-843.5"/>
<polyline fill="none" stroke="black" points="813,-843.5 813,-477.5 "/>
<path fill="none" stroke="black" d="M813,-477.5C813,-471.5 819,-465.5 825,-465.5"/>
<text text-anchor="middle" x="936.5" y="-838.9" font-family="Times Roman,serif" font-size="14.00">UsersController</text>
<polyline fill="none" stroke="black" points="813,-829.5 1060,-829.5 "/>
<text text-anchor="start" x="821" y="-812.9" font-family="Times Roman,serif" font-size="14.00">_one_time_conditions_valid_353?</text>
<text text-anchor="start" x="821" y="-794.9" font-family="Times Roman,serif" font-size="14.00">_one_time_conditions_valid_355?</text>
<text text-anchor="start" x="821" y="-776.9" font-family="Times Roman,serif" font-size="14.00">_one_time_conditions_valid_357?</text>
<text text-anchor="start" x="821" y="-758.9" font-family="Times Roman,serif" font-size="14.00">_one_time_conditions_valid_361?</text>
<text text-anchor="start" x="821" y="-740.9" font-family="Times Roman,serif" font-size="14.00">admin_group_list</text>
<text text-anchor="start" x="821" y="-722.9" font-family="Times Roman,serif" font-size="14.00">all_users</text>
<text text-anchor="start" x="821" y="-704.9" font-family="Times Roman,serif" font-size="14.00">canceled_user_account</text>
<text text-anchor="start" x="821" y="-686.9" font-family="Times Roman,serif" font-size="14.00">edit_user_info</text>
<text text-anchor="start" x="821" y="-668.9" font-family="Times Roman,serif" font-size="14.00">show_user_to_local_admin</text>
<text text-anchor="start" x="821" y="-650.9" font-family="Times Roman,serif" font-size="14.00">suspend_user</text>
<text text-anchor="start" x="821" y="-632.9" font-family="Times Roman,serif" font-size="14.00">to_admin_group_worker</text>
<text text-anchor="start" x="821" y="-614.9" font-family="Times Roman,serif" font-size="14.00">to_business_group_owner</text>
<text text-anchor="start" x="821" y="-596.9" font-family="Times Roman,serif" font-size="14.00">to_worker</text>
<text text-anchor="start" x="821" y="-578.9" font-family="Times Roman,serif" font-size="14.00">update_user_info</text>
<text text-anchor="start" x="821" y="-560.9" font-family="Times Roman,serif" font-size="14.00">user_management</text>
<polyline fill="none" stroke="black" points="813,-551.5 1060,-551.5 "/>
<polyline fill="none" stroke="black" points="813,-527.5 1060,-527.5 "/>
<text text-anchor="start" x="821" y="-510.9" font-family="Times Roman,serif" font-size="14.00">_layout</text>
<text text-anchor="start" x="821" y="-492.9" font-family="Times Roman,serif" font-size="14.00">should_be_AGO</text>
<text text-anchor="start" x="821" y="-474.9" font-family="Times Roman,serif" font-size="14.00">should_be_local_admin</text>
</g>
<!-- AdminGroupOwnersController -->
<g id="node19" class="node"><title>AdminGroupOwnersController</title>
<polyline fill="none" stroke="black" points="912,-900.5 1135,-900.5 "/>
<path fill="none" stroke="black" d="M1135,-900.5C1141,-900.5 1147,-906.5 1147,-912.5"/>
<polyline fill="none" stroke="black" points="1147,-912.5 1147,-1260.5 "/>
<path fill="none" stroke="black" d="M1147,-1260.5C1147,-1266.5 1141,-1272.5 1135,-1272.5"/>
<polyline fill="none" stroke="black" points="1135,-1272.5 912,-1272.5 "/>
<path fill="none" stroke="black" d="M912,-1272.5C906,-1272.5 900,-1266.5 900,-1260.5"/>
<polyline fill="none" stroke="black" points="900,-1260.5 900,-912.5 "/>
<path fill="none" stroke="black" d="M900,-912.5C900,-906.5 906,-900.5 912,-900.5"/>
<text text-anchor="middle" x="1023.5" y="-1255.9" font-family="Times Roman,serif" font-size="14.00">AdminGroupOwnersController</text>
<polyline fill="none" stroke="black" points="900,-1246.5 1147,-1246.5 "/>
<text text-anchor="start" x="908" y="-1229.9" font-family="Times Roman,serif" font-size="14.00">_one_time_conditions_valid_365?</text>
<text text-anchor="start" x="908" y="-1211.9" font-family="Times Roman,serif" font-size="14.00">all_my_admin_group_workers</text>
<text text-anchor="start" x="908" y="-1193.9" font-family="Times Roman,serif" font-size="14.00">all_workers</text>
<text text-anchor="start" x="908" y="-1175.9" font-family="Times Roman,serif" font-size="14.00">change_admin_group_status</text>
<text text-anchor="start" x="908" y="-1157.9" font-family="Times Roman,serif" font-size="14.00">delete_admin_group</text>
<text text-anchor="start" x="908" y="-1139.9" font-family="Times Roman,serif" font-size="14.00">edit_admin_group</text>
<text text-anchor="start" x="908" y="-1121.9" font-family="Times Roman,serif" font-size="14.00">edit_main_admin_group</text>
<text text-anchor="start" x="908" y="-1103.9" font-family="Times Roman,serif" font-size="14.00">my_keys</text>
<text text-anchor="start" x="908" y="-1085.9" font-family="Times Roman,serif" font-size="14.00">related_ideas</text>
<text text-anchor="start" x="908" y="-1067.9" font-family="Times Roman,serif" font-size="14.00">sago_home</text>
<text text-anchor="start" x="908" y="-1049.9" font-family="Times Roman,serif" font-size="14.00">show_admin_group</text>
<text text-anchor="start" x="908" y="-1031.9" font-family="Times Roman,serif" font-size="14.00">show_main_admin_group</text>
<text text-anchor="start" x="908" y="-1013.9" font-family="Times Roman,serif" font-size="14.00">update_admin_group</text>
<text text-anchor="start" x="908" y="-995.9" font-family="Times Roman,serif" font-size="14.00">update_main_admin_group</text>
<text text-anchor="start" x="908" y="-977.9" font-family="Times Roman,serif" font-size="14.00">view_all_workers</text>
<polyline fill="none" stroke="black" points="900,-968.5 1147,-968.5 "/>
<polyline fill="none" stroke="black" points="900,-944.5 1147,-944.5 "/>
<text text-anchor="start" x="908" y="-927.9" font-family="Times Roman,serif" font-size="14.00">_layout</text>
<text text-anchor="start" x="908" y="-909.9" font-family="Times Roman,serif" font-size="14.00">should_be_AGO</text>
</g>
<!-- RegistrationsController -->
<g id="node20" class="node"><title>RegistrationsController</title>
<polyline fill="none" stroke="black" points="709,-1.5 948,-1.5 "/>
<path fill="none" stroke="black" d="M948,-1.5C954,-1.5 960,-7.5 960,-13.5"/>
<polyline fill="none" stroke="black" points="960,-13.5 960,-181.5 "/>
<path fill="none" stroke="black" d="M960,-181.5C960,-187.5 954,-193.5 948,-193.5"/>
<polyline fill="none" stroke="black" points="948,-193.5 709,-193.5 "/>
<path fill="none" stroke="black" d="M709,-193.5C703,-193.5 697,-187.5 697,-181.5"/>
<polyline fill="none" stroke="black" points="697,-181.5 697,-13.5 "/>
<path fill="none" stroke="black" d="M697,-13.5C697,-7.5 703,-1.5 709,-1.5"/>
<text text-anchor="middle" x="828.5" y="-176.9" font-family="Times Roman,serif" font-size="14.00">RegistrationsController</text>
<polyline fill="none" stroke="black" points="697,-167.5 960,-167.5 "/>
<text text-anchor="start" x="705" y="-150.9" font-family="Times Roman,serif" font-size="14.00">_one_time_conditions_valid_377?</text>
<text text-anchor="start" x="705" y="-132.9" font-family="Times Roman,serif" font-size="14.00">_one_time_conditions_valid_381?</text>
<text text-anchor="start" x="705" y="-114.9" font-family="Times Roman,serif" font-size="14.00">autocomplete_country_detail_name</text>
<text text-anchor="start" x="705" y="-96.9" font-family="Times Roman,serif" font-size="14.00">create_LA</text>
<polyline fill="none" stroke="black" points="697,-87.5 960,-87.5 "/>
<polyline fill="none" stroke="black" points="697,-63.5 960,-63.5 "/>
<text text-anchor="start" x="705" y="-46.9" font-family="Times Roman,serif" font-size="14.00">_layout</text>
<text text-anchor="start" x="705" y="-28.9" font-family="Times Roman,serif" font-size="14.00">redirect_if_already_exist</text>
<text text-anchor="start" x="705" y="-10.9" font-family="Times Roman,serif" font-size="14.00">redirect_to_home</text>
</g>
<!-- ConsultantWorkersController -->
<g id="node21" class="node"><title>ConsultantWorkersController</title>
<polyline fill="none" stroke="black" points="1260,-291.5 1517,-291.5 "/>
<path fill="none" stroke="black" d="M1517,-291.5C1523,-291.5 1529,-297.5 1529,-303.5"/>
<polyline fill="none" stroke="black" points="1529,-303.5 1529,-399.5 "/>
<path fill="none" stroke="black" d="M1529,-399.5C1529,-405.5 1523,-411.5 1517,-411.5"/>
<polyline fill="none" stroke="black" points="1517,-411.5 1260,-411.5 "/>
<path fill="none" stroke="black" d="M1260,-411.5C1254,-411.5 1248,-405.5 1248,-399.5"/>
<polyline fill="none" stroke="black" points="1248,-399.5 1248,-303.5 "/>
<path fill="none" stroke="black" d="M1248,-303.5C1248,-297.5 1254,-291.5 1260,-291.5"/>
<text text-anchor="middle" x="1388.5" y="-394.9" font-family="Times Roman,serif" font-size="14.00">ConsultantWorkersController</text>
<polyline fill="none" stroke="black" points="1248,-385.5 1529,-385.5 "/>
<text text-anchor="start" x="1256" y="-368.9" font-family="Times Roman,serif" font-size="14.00">_one_time_conditions_valid_387?</text>
<text text-anchor="start" x="1256" y="-350.9" font-family="Times Roman,serif" font-size="14.00">change_worker_to_consultant_worker</text>
<polyline fill="none" stroke="black" points="1248,-341.5 1529,-341.5 "/>
<polyline fill="none" stroke="black" points="1248,-317.5 1529,-317.5 "/>
<text text-anchor="start" x="1256" y="-300.9" font-family="Times Roman,serif" font-size="14.00">_layout</text>
</g>
</g>
</svg>
