<?xml version="1.0" encoding="UTF-8" standalone="no"?>
<!DOCTYPE svg PUBLIC "-//W3C//DTD SVG 1.1//EN"
 "http://www.w3.org/Graphics/SVG/1.1/DTD/svg11.dtd">
<!-- Generated by graphviz version 2.26.3 (20100126.1600)
 -->
<!-- Title: models_diagram Pages: 1 -->
<svg width="1320pt" height="380pt"
 viewBox="0.00 0.00 1320.00 380.00" xmlns="http://www.w3.org/2000/svg" xmlns:xlink="http://www.w3.org/1999/xlink">
<g id="graph1" class="graph" transform="scale(1 1) rotate(0) translate(4 376)">
<title>models_diagram</title>
<polygon fill="white" stroke="white" points="-4,5 -4,-376 1317,-376 1317,5 -4,5"/>
<!-- _diagram_info -->
<g id="node1" class="node"><title>_diagram_info</title>
<text text-anchor="start" x="8" y="-356.3" font-family="Times Roman,serif" font-size="13.00">Models diagram</text>
<text text-anchor="start" x="8" y="-339.3" font-family="Times Roman,serif" font-size="13.00">Date: Jun 22 2012 &#45; 14:20</text>
<text text-anchor="start" x="8" y="-322.3" font-family="Times Roman,serif" font-size="13.00">Generated by RailRoady 1.0.7</text>
<text text-anchor="start" x="8" y="-305.3" font-family="Times Roman,serif" font-size="13.00">http://railroady.prestonlee.com</text>
</g>
<!-- CountryDetail -->
<g id="node2" class="node"><title>CountryDetail</title>
<ellipse fill="none" stroke="black" cx="308" cy="-334" rx="80.1095" ry="18.3848"/>
<text text-anchor="middle" x="308" y="-330.4" font-family="Times Roman,serif" font-size="14.00">CountryDetail</text>
</g>
<!-- LaSetting -->
<g id="node3" class="node"><title>LaSetting</title>
<ellipse fill="none" stroke="black" cx="664" cy="-241" rx="58.1882" ry="18.3848"/>
<text text-anchor="middle" x="664" y="-237.4" font-family="Times Roman,serif" font-size="14.00">LaSetting</text>
</g>
<!-- AdminGroup -->
<g id="node12" class="node"><title>AdminGroup</title>
<ellipse fill="none" stroke="black" cx="510" cy="-167" rx="72.832" ry="18.3848"/>
<text text-anchor="middle" x="510" y="-163.4" font-family="Times Roman,serif" font-size="14.00">AdminGroup</text>
</g>
<!-- LaSetting&#45;&gt;AdminGroup -->
<g id="edge2" class="edge"><title>LaSetting&#45;&gt;AdminGroup</title>
<path fill="none" stroke="#10ca67" d="M624.247,-221.898C602.525,-211.46 575.593,-198.519 553.334,-187.823"/>
<ellipse fill="none" stroke="#10ca67" cx="628.111" cy="-223.755" rx="4.00002" ry="4.00002"/>
<polygon fill="#10ca67" stroke="#10ca67" points="553.123,-187.722 546.059,-179.334 548.616,-185.556 544.11,-183.39 544.11,-183.39 544.11,-183.39 548.616,-185.556 542.161,-187.446 553.123,-187.722 553.123,-187.722"/>
</g>
<!-- AffillationKey -->
<g id="node4" class="node"><title>AffillationKey</title>
<ellipse fill="none" stroke="black" cx="442" cy="-19" rx="75.1594" ry="18.3848"/>
<text text-anchor="middle" x="442" y="-15.4" font-family="Times Roman,serif" font-size="14.00">AffillationKey</text>
</g>
<!-- Idea -->
<g id="node5" class="node"><title>Idea</title>
<ellipse fill="none" stroke="black" cx="102" cy="-241" rx="32.0265" ry="18.3848"/>
<text text-anchor="middle" x="102" y="-237.4" font-family="Times Roman,serif" font-size="14.00">Idea</text>
</g>
<!-- User -->
<g id="node6" class="node"><title>User</title>
<ellipse fill="none" stroke="black" cx="440" cy="-334" rx="33.9411" ry="18.3848"/>
<text text-anchor="middle" x="440" y="-330.4" font-family="Times Roman,serif" font-size="14.00">User</text>
</g>
<!-- User&#45;&gt;LaSetting -->
<g id="edge16" class="edge"><title>User&#45;&gt;LaSetting</title>
<path fill="none" stroke="#81c874" d="M474.943,-319.492C514.418,-303.103 578.68,-276.423 621.149,-258.791"/>
<ellipse fill="none" stroke="#81c874" cx="471.161" cy="-321.063" rx="4.00002" ry="4.00002"/>
<ellipse fill="#81c874" stroke="#81c874" cx="624.859" cy="-257.251" rx="4.00002" ry="4.00002"/>
</g>
<!-- User&#45;&gt;Idea -->
<g id="edge6" class="edge"><title>User&#45;&gt;Idea</title>
<path fill="none" stroke="#72c886" d="M419.146,-311.228C412.615,-305.375 405.006,-299.694 397,-296 293.471,-248.234 252.341,-292.316 143,-260 140.409,-259.234 137.773,-258.331 135.152,-257.34"/>
<ellipse fill="none" stroke="#72c886" cx="422.392" cy="-314.315" rx="4.00002" ry="4.00002"/>
<polygon fill="#72c886" stroke="#72c886" points="135.059,-257.302 127.551,-249.309 130.442,-255.383 125.824,-253.464 125.824,-253.464 125.824,-253.464 130.442,-255.383 124.098,-257.62 135.059,-257.302 135.059,-257.302"/>
</g>
<!-- UserRole -->
<g id="node7" class="node"><title>UserRole</title>
<ellipse fill="none" stroke="black" cx="870" cy="-241" rx="53.9477" ry="18.3848"/>
<text text-anchor="middle" x="870" y="-237.4" font-family="Times Roman,serif" font-size="14.00">UserRole</text>
</g>
<!-- User&#45;&gt;UserRole -->
<g id="edge20" class="edge"><title>User&#45;&gt;UserRole</title>
<path fill="none" stroke="#69a560" d="M480.856,-326.625C548.128,-314.263 686.296,-287.954 802,-260 807.436,-258.687 813.095,-257.238 818.723,-255.744"/>
<ellipse fill="none" stroke="#69a560" cx="476.555" cy="-327.413" rx="4.00001" ry="4.00001"/>
<polygon fill="#69a560" stroke="#69a560" points="819.116,-255.638 829.944,-257.368 823.942,-254.331 828.769,-253.025 828.769,-253.025 828.769,-253.025 823.942,-254.331 827.593,-248.681 819.116,-255.638 819.116,-255.638"/>
</g>
<!-- Profile -->
<g id="node8" class="node"><title>Profile</title>
<ellipse fill="none" stroke="black" cx="194" cy="-241" rx="41.9273" ry="18.3848"/>
<text text-anchor="middle" x="194" y="-237.4" font-family="Times Roman,serif" font-size="14.00">Profile</text>
</g>
<!-- User&#45;&gt;Profile -->
<g id="edge4" class="edge"><title>User&#45;&gt;Profile</title>
<path fill="none" stroke="#78cef2" d="M418.564,-311.436C412.106,-305.693 404.68,-300.018 397,-296 337.398,-264.822 314.576,-278.824 250,-260 244.901,-258.514 239.576,-256.852 234.324,-255.147"/>
<ellipse fill="none" stroke="#78cef2" cx="421.75" cy="-314.412" rx="4.00002" ry="4.00002"/>
<ellipse fill="#78cef2" stroke="#78cef2" cx="230.515" cy="-253.888" rx="4.00001" ry="4.00001"/>
</g>
<!-- ConsultantWorker -->
<g id="node11" class="node"><title>ConsultantWorker</title>
<ellipse fill="none" stroke="black" cx="147" cy="-167" rx="101.116" ry="18.3848"/>
<text text-anchor="middle" x="147" y="-163.4" font-family="Times Roman,serif" font-size="14.00">ConsultantWorker</text>
</g>
<!-- User&#45;&gt;ConsultantWorker -->
<g id="edge14" class="edge"><title>User&#45;&gt;ConsultantWorker</title>
<path fill="none" stroke="#1ae8b2" d="M419.225,-311.052C412.696,-305.196 405.068,-299.557 397,-296 328.288,-265.706 111.191,-315.856 61,-260 49.7118,-247.438 52.8896,-236.814 61,-222 68.6099,-208.1 81.3952,-197.2 94.8124,-188.901"/>
<ellipse fill="none" stroke="#1ae8b2" cx="422.47" cy="-314.15" rx="4.00002" ry="4.00002"/>
<polygon fill="#1ae8b2" stroke="#1ae8b2" points="94.999,-188.794 105.912,-187.72 99.3358,-186.305 103.673,-183.817 103.673,-183.817 103.673,-183.817 99.3358,-186.305 101.433,-179.914 94.999,-188.794 94.999,-188.794"/>
</g>
<!-- User&#45;&gt;AdminGroup -->
<g id="edge8" class="edge"><title>User&#45;&gt;AdminGroup</title>
<path fill="none" stroke="#4a1b1f" d="M418.386,-311.763C411.927,-306.023 404.544,-300.268 397,-296 350.754,-269.839 314.408,-302.856 283,-260 273.016,-246.378 272.558,-235.274 283,-222 301.545,-198.425 374.466,-183.73 432.722,-175.524"/>
<ellipse fill="none" stroke="#4a1b1f" cx="421.577" cy="-314.722" rx="4.00002" ry="4.00002"/>
<polygon fill="#4a1b1f" stroke="#4a1b1f" points="432.764,-175.519 443.281,-178.624 437.718,-174.842 442.672,-174.165 442.672,-174.165 442.672,-174.165 437.718,-174.842 442.062,-169.706 432.764,-175.519 432.764,-175.519"/>
</g>
<!-- AdminGroupWorker -->
<g id="node14" class="node"><title>AdminGroupWorker</title>
<ellipse fill="none" stroke="black" cx="578" cy="-93" rx="108.187" ry="18.3848"/>
<text text-anchor="middle" x="578" y="-89.4" font-family="Times Roman,serif" font-size="14.00">AdminGroupWorker</text>
</g>
<!-- User&#45;&gt;AdminGroupWorker -->
<g id="edge10" class="edge"><title>User&#45;&gt;AdminGroupWorker</title>
<path fill="none" stroke="#42318d" d="M481.518,-329.632C554.4,-321.015 700.536,-299.18 731,-260 773.728,-205.046 684.197,-146.236 624.894,-115.182"/>
<ellipse fill="none" stroke="#42318d" cx="477.402" cy="-330.109" rx="4.00001" ry="4.00001"/>
<polygon fill="#42318d" stroke="#42318d" points="624.556,-115.009 617.716,-106.438 620.108,-112.725 615.66,-110.442 615.66,-110.442 615.66,-110.442 620.108,-112.725 613.605,-114.445 624.556,-115.009 624.556,-115.009"/>
</g>
<!-- BusinessGroup -->
<g id="node15" class="node"><title>BusinessGroup</title>
<ellipse fill="none" stroke="black" cx="788" cy="-93" rx="84.1457" ry="18.3848"/>
<text text-anchor="middle" x="788" y="-89.4" font-family="Times Roman,serif" font-size="14.00">BusinessGroup</text>
</g>
<!-- User&#45;&gt;BusinessGroup -->
<g id="edge12" class="edge"><title>User&#45;&gt;BusinessGroup</title>
<path fill="none" stroke="#c36703" d="M481.887,-329.463C557.568,-320.413 712.714,-297.683 750,-260 786.451,-223.161 790.882,-159.073 789.998,-121.917"/>
<ellipse fill="none" stroke="#c36703" cx="477.475" cy="-329.981" rx="4.00001" ry="4.00001"/>
<polygon fill="#c36703" stroke="#c36703" points="789.991,-121.746 794.103,-111.58 789.798,-116.75 789.606,-111.753 789.606,-111.753 789.606,-111.753 789.798,-116.75 785.109,-111.927 789.991,-121.746 789.991,-121.746"/>
</g>
<!-- GlobalAdminGeneralSetting -->
<g id="node17" class="node"><title>GlobalAdminGeneralSetting</title>
<ellipse fill="none" stroke="black" cx="440" cy="-241" rx="147.785" ry="18.3848"/>
<text text-anchor="middle" x="440" y="-237.4" font-family="Times Roman,serif" font-size="14.00">GlobalAdminGeneralSetting</text>
</g>
<!-- User&#45;&gt;GlobalAdminGeneralSetting -->
<g id="edge18" class="edge"><title>User&#45;&gt;GlobalAdminGeneralSetting</title>
<path fill="none" stroke="#de9fb9" d="M440,-307.158C440,-294.833 440,-280.25 440,-267.916"/>
<ellipse fill="none" stroke="#de9fb9" cx="440" cy="-311.18" rx="4" ry="4"/>
<ellipse fill="#de9fb9" stroke="#de9fb9" cx="440" cy="-263.792" rx="4" ry="4"/>
</g>
<!-- Role -->
<g id="node9" class="node"><title>Role</title>
<ellipse fill="none" stroke="black" cx="870" cy="-334" rx="32.0265" ry="18.3848"/>
<text text-anchor="middle" x="870" y="-330.4" font-family="Times Roman,serif" font-size="14.00">Role</text>
</g>
<!-- Role&#45;&gt;UserRole -->
<g id="edge22" class="edge"><title>Role&#45;&gt;UserRole</title>
<path fill="none" stroke="#aebbd0" d="M870,-307.158C870,-295.544 870,-281.925 870,-270.072"/>
<ellipse fill="none" stroke="#aebbd0" cx="870" cy="-311.18" rx="4" ry="4"/>
<polygon fill="#aebbd0" stroke="#aebbd0" points="870,-269.792 874.5,-259.792 870,-264.792 870,-259.792 870,-259.792 870,-259.792 870,-264.792 865.5,-259.792 870,-269.792 870,-269.792"/>
</g>
<!-- GuestUser -->
<g id="node10" class="node"><title>GuestUser</title>
<ellipse fill="none" stroke="black" cx="983" cy="-334" rx="62.9325" ry="18.3848"/>
<text text-anchor="middle" x="983" y="-330.4" font-family="Times Roman,serif" font-size="14.00">GuestUser</text>
</g>
<!-- AdminGroupConsultantWorker -->
<g id="node13" class="node"><title>AdminGroupConsultantWorker</title>
<ellipse fill="none" stroke="black" cx="252" cy="-93" rx="161.927" ry="18.3848"/>
<text text-anchor="middle" x="252" y="-89.4" font-family="Times Roman,serif" font-size="14.00">AdminGroupConsultantWorker</text>
</g>
<!-- ConsultantWorker&#45;&gt;AdminGroupConsultantWorker -->
<g id="edge24" class="edge"><title>ConsultantWorker&#45;&gt;AdminGroupConsultantWorker</title>
<path fill="none" stroke="#bd7a7f" d="M179.129,-144.357C191.366,-135.732 205.351,-125.876 217.775,-117.12"/>
<ellipse fill="none" stroke="#bd7a7f" cx="175.687" cy="-146.782" rx="4.00002" ry="4.00002"/>
<polygon fill="#bd7a7f" stroke="#bd7a7f" points="217.913,-117.023 228.679,-114.941 222,-114.143 226.087,-111.262 226.087,-111.262 226.087,-111.262 222,-114.143 223.495,-107.584 217.913,-117.023 217.913,-117.023"/>
</g>
<!-- AdminGroup&#45;&gt;AffillationKey -->
<g id="edge32" class="edge"><title>AdminGroup&#45;&gt;AffillationKey</title>
<path fill="none" stroke="#10eeb6" d="M483.75,-143.119C475.308,-134.135 466.68,-123.333 461,-112 450.579,-91.2104 445.874,-65.0814 443.749,-45.8169"/>
<ellipse fill="none" stroke="#10eeb6" cx="486.73" cy="-146.171" rx="4.00002" ry="4.00002"/>
<ellipse fill="#10eeb6" stroke="#10eeb6" cx="443.352" cy="-41.7362" rx="4" ry="4"/>
</g>
<!-- AdminGroup&#45;&gt;AdminGroupConsultantWorker -->
<g id="edge26" class="edge"><title>AdminGroup&#45;&gt;AdminGroupConsultantWorker</title>
<path fill="none" stroke="#dfa512" d="M453.579,-150.817C414.848,-139.708 363.178,-124.888 321.847,-113.034"/>
<ellipse fill="none" stroke="#dfa512" cx="457.627" cy="-151.978" rx="4.00001" ry="4.00001"/>
<polygon fill="#dfa512" stroke="#dfa512" points="321.731,-113 313.359,-105.918 316.924,-111.622 312.118,-110.243 312.118,-110.243 312.118,-110.243 316.924,-111.622 310.877,-114.569 321.731,-113 321.731,-113"/>
</g>
<!-- AdminGroup&#45;&gt;AdminGroupWorker -->
<g id="edge28" class="edge"><title>AdminGroup&#45;&gt;AdminGroupWorker</title>
<path fill="none" stroke="#d73f3f" d="M532.435,-142.586C539.453,-134.948 547.219,-126.497 554.32,-118.769"/>
<ellipse fill="none" stroke="#d73f3f" cx="529.516" cy="-145.763" rx="4.00002" ry="4.00002"/>
<polygon fill="#d73f3f" stroke="#d73f3f" points="554.382,-118.701 564.462,-114.383 557.766,-115.02 561.149,-111.338 561.149,-111.338 561.149,-111.338 557.766,-115.02 557.835,-108.293 554.382,-118.701 554.382,-118.701"/>
</g>
<!-- AdminGroup&#45;&gt;BusinessGroup -->
<g id="edge30" class="edge"><title>AdminGroup&#45;&gt;BusinessGroup</title>
<path fill="none" stroke="#268db8" d="M568.321,-151.476C614.014,-139.313 677.498,-122.414 724.475,-109.909"/>
<ellipse fill="none" stroke="#268db8" cx="564.209" cy="-152.57" rx="4.00001" ry="4.00001"/>
<polygon fill="#268db8" stroke="#268db8" points="724.573,-109.883 735.394,-111.66 729.405,-108.597 734.237,-107.311 734.237,-107.311 734.237,-107.311 729.405,-108.597 733.079,-102.963 724.573,-109.883 724.573,-109.883"/>
</g>
<!-- AdminGroupConsultantWorker&#45;&gt;AffillationKey -->
<g id="edge34" class="edge"><title>AdminGroupConsultantWorker&#45;&gt;AffillationKey</title>
<path fill="none" stroke="#898136" d="M305.58,-72.1322C333.318,-61.3286 366.916,-48.2433 393.828,-37.7619"/>
<ellipse fill="none" stroke="#898136" cx="301.721" cy="-73.635" rx="4.00001" ry="4.00001"/>
<ellipse fill="#898136" stroke="#898136" cx="397.862" cy="-36.1905" rx="4.00001" ry="4.00001"/>
</g>
<!-- BusinessGroup&#45;&gt;AffillationKey -->
<g id="edge36" class="edge"><title>BusinessGroup&#45;&gt;AffillationKey</title>
<path fill="none" stroke="#76a27a" d="M719.617,-78.3746C657.774,-65.1483 567.372,-45.8136 506.698,-32.8372"/>
<ellipse fill="none" stroke="#76a27a" cx="723.82" cy="-79.2736" rx="4.00001" ry="4.00001"/>
<ellipse fill="#76a27a" stroke="#76a27a" cx="502.623" cy="-31.9656" rx="4.00001" ry="4.00001"/>
</g>
<!-- Currency -->
<g id="node16" class="node"><title>Currency</title>
<ellipse fill="none" stroke="black" cx="1120" cy="-334" rx="56.0679" ry="18.3848"/>
<text text-anchor="middle" x="1120" y="-330.4" font-family="Times Roman,serif" font-size="14.00">Currency</text>
</g>
<!-- Language -->
<g id="node18" class="node"><title>Language</title>
<ellipse fill="none" stroke="black" cx="1253" cy="-334" rx="58.8978" ry="18.3848"/>
<text text-anchor="middle" x="1253" y="-330.4" font-family="Times Roman,serif" font-size="14.00">Language</text>
</g>
</g>
</svg>
