<?xml version="1.0" encoding="UTF-8" standalone="no"?>
<!DOCTYPE svg PUBLIC "-//W3C//DTD SVG 1.1//EN"
 "http://www.w3.org/Graphics/SVG/1.1/DTD/svg11.dtd">
<!-- Generated by graphviz version 2.26.3 (20100126.1600)
 -->
<!-- Title: models_diagram Pages: 1 -->
<svg width="1435pt" height="380pt"
 viewBox="0.00 0.00 1435.00 380.00" xmlns="http://www.w3.org/2000/svg" xmlns:xlink="http://www.w3.org/1999/xlink">
<g id="graph1" class="graph" transform="scale(1 1) rotate(0) translate(4 376)">
<title>models_diagram</title>
<polygon fill="white" stroke="white" points="-4,5 -4,-376 1432,-376 1432,5 -4,5"/>
<!-- _diagram_info -->
<g id="node1" class="node"><title>_diagram_info</title>
<text text-anchor="start" x="313" y="-356.3" font-family="Times Roman,serif" font-size="13.00">Models diagram</text>
<text text-anchor="start" x="313" y="-339.3" font-family="Times Roman,serif" font-size="13.00">Date: Jun 22 2012 &#45; 09:59</text>
<text text-anchor="start" x="313" y="-322.3" font-family="Times Roman,serif" font-size="13.00">Generated by RailRoady 1.0.7</text>
<text text-anchor="start" x="313" y="-305.3" font-family="Times Roman,serif" font-size="13.00">http://railroady.prestonlee.com</text>
</g>
<!-- CountryDetail -->
<g id="node2" class="node"><title>CountryDetail</title>
<ellipse fill="none" stroke="black" cx="613" cy="-334" rx="80.1095" ry="18.3848"/>
<text text-anchor="middle" x="613" y="-330.4" font-family="Times Roman,serif" font-size="14.00">CountryDetail</text>
</g>
<!-- User -->
<g id="node6" class="node"><title>User</title>
<ellipse fill="none" stroke="black" cx="613" cy="-241" rx="33.9411" ry="18.3848"/>
<text text-anchor="middle" x="613" y="-237.4" font-family="Times Roman,serif" font-size="14.00">User</text>
</g>
<!-- CountryDetail&#45;&gt;User -->
<g id="edge2" class="edge"><title>CountryDetail&#45;&gt;User</title>
<path fill="none" stroke="#0853c3" d="M613,-307.158C613,-295.544 613,-281.925 613,-270.072"/>
<ellipse fill="none" stroke="#0853c3" cx="613" cy="-311.18" rx="4" ry="4"/>
<polygon fill="#0853c3" stroke="#0853c3" points="613,-269.792 617.5,-259.792 613,-264.792 613,-259.792 613,-259.792 613,-259.792 613,-264.792 608.5,-259.792 613,-269.792 613,-269.792"/>
</g>
<!-- LaSetting -->
<g id="node3" class="node"><title>LaSetting</title>
<ellipse fill="none" stroke="black" cx="941" cy="-167" rx="58.1882" ry="18.3848"/>
<text text-anchor="middle" x="941" y="-163.4" font-family="Times Roman,serif" font-size="14.00">LaSetting</text>
</g>
<!-- AffillationKey -->
<g id="node4" class="node"><title>AffillationKey</title>
<ellipse fill="none" stroke="black" cx="430" cy="-19" rx="75.1594" ry="18.3848"/>
<text text-anchor="middle" x="430" y="-15.4" font-family="Times Roman,serif" font-size="14.00">AffillationKey</text>
</g>
<!-- Idea -->
<g id="node5" class="node"><title>Idea</title>
<ellipse fill="none" stroke="black" cx="1049" cy="-167" rx="32.0265" ry="18.3848"/>
<text text-anchor="middle" x="1049" y="-163.4" font-family="Times Roman,serif" font-size="14.00">Idea</text>
</g>
<!-- User&#45;&gt;LaSetting -->
<g id="edge16" class="edge"><title>User&#45;&gt;LaSetting</title>
<path fill="none" stroke="#85dd1f" d="M653.205,-233.417C704.63,-223.515 796.331,-205.172 874,-186 879.284,-184.696 884.781,-183.263 890.254,-181.786"/>
<ellipse fill="none" stroke="#85dd1f" cx="649.235" cy="-234.179" rx="4.00001" ry="4.00001"/>
<ellipse fill="#85dd1f" stroke="#85dd1f" cx="894.368" cy="-180.659" rx="4.00001" ry="4.00001"/>
</g>
<!-- User&#45;&gt;Idea -->
<g id="edge6" class="edge"><title>User&#45;&gt;Idea</title>
<path fill="none" stroke="#8e2683" d="M655.085,-239.212C728.231,-235.213 882.963,-222.789 1008,-186 1010.59,-185.237 1013.23,-184.336 1015.85,-183.347"/>
<ellipse fill="none" stroke="#8e2683" cx="650.993" cy="-239.428" rx="4" ry="4"/>
<polygon fill="#8e2683" stroke="#8e2683" points="1015.94,-183.309 1026.9,-183.631 1020.56,-181.392 1025.18,-179.475 1025.18,-179.475 1025.18,-179.475 1020.56,-181.392 1023.45,-175.318 1015.94,-183.309 1015.94,-183.309"/>
</g>
<!-- MainAdminGroup -->
<g id="node7" class="node"><title>MainAdminGroup</title>
<ellipse fill="none" stroke="black" cx="151" cy="-167" rx="96.1665" ry="18.3848"/>
<text text-anchor="middle" x="151" y="-163.4" font-family="Times Roman,serif" font-size="14.00">MainAdminGroup</text>
</g>
<!-- User&#45;&gt;MainAdminGroup -->
<g id="edge18" class="edge"><title>User&#45;&gt;MainAdminGroup</title>
<path fill="none" stroke="#71412f" d="M571.914,-234.799C506.193,-224.831 373.376,-204.483 261,-186 251.019,-184.358 240.535,-182.596 230.168,-180.831"/>
<ellipse fill="none" stroke="#71412f" cx="576.017" cy="-235.421" rx="4.00001" ry="4.00001"/>
<ellipse fill="#71412f" stroke="#71412f" cx="226.217" cy="-180.156" rx="4.00001" ry="4.00001"/>
</g>
<!-- UserRole -->
<g id="node8" class="node"><title>UserRole</title>
<ellipse fill="none" stroke="black" cx="1373" cy="-167" rx="53.9477" ry="18.3848"/>
<text text-anchor="middle" x="1373" y="-163.4" font-family="Times Roman,serif" font-size="14.00">UserRole</text>
</g>
<!-- User&#45;&gt;UserRole -->
<g id="edge22" class="edge"><title>User&#45;&gt;UserRole</title>
<path fill="none" stroke="#b70864" d="M655.403,-238.848C786.363,-232.012 1183.2,-209.838 1310,-186 1314.73,-185.11 1319.62,-183.998 1324.47,-182.761"/>
<ellipse fill="none" stroke="#b70864" cx="651.162" cy="-239.068" rx="4" ry="4"/>
<polygon fill="#b70864" stroke="#b70864" points="1324.69,-182.702 1335.52,-184.421 1329.51,-181.39 1334.34,-180.078 1334.34,-180.078 1334.34,-180.078 1329.51,-181.39 1333.16,-175.736 1324.69,-182.702 1324.69,-182.702"/>
</g>
<!-- Profile -->
<g id="node9" class="node"><title>Profile</title>
<ellipse fill="none" stroke="black" cx="509" cy="-167" rx="41.9273" ry="18.3848"/>
<text text-anchor="middle" x="509" y="-163.4" font-family="Times Roman,serif" font-size="14.00">Profile</text>
</g>
<!-- User&#45;&gt;Profile -->
<g id="edge4" class="edge"><title>User&#45;&gt;Profile</title>
<path fill="none" stroke="#9b0404" d="M585.047,-221.11C570.481,-210.746 552.687,-198.085 537.975,-187.617"/>
<ellipse fill="none" stroke="#9b0404" cx="588.695" cy="-223.706" rx="4.00002" ry="4.00002"/>
<ellipse fill="#9b0404" stroke="#9b0404" cx="534.714" cy="-185.296" rx="4.00002" ry="4.00002"/>
</g>
<!-- ConsultantWorker -->
<g id="node13" class="node"><title>ConsultantWorker</title>
<ellipse fill="none" stroke="black" cx="1200" cy="-167" rx="101.116" ry="18.3848"/>
<text text-anchor="middle" x="1200" y="-163.4" font-family="Times Roman,serif" font-size="14.00">ConsultantWorker</text>
</g>
<!-- User&#45;&gt;ConsultantWorker -->
<g id="edge14" class="edge"><title>User&#45;&gt;ConsultantWorker</title>
<path fill="none" stroke="#d7d9d5" d="M654.797,-236.979C737.89,-228.809 929.659,-209.073 1090,-186 1099.02,-184.703 1108.43,-183.241 1117.79,-181.72"/>
<ellipse fill="none" stroke="#d7d9d5" cx="650.607" cy="-237.389" rx="4" ry="4"/>
<polygon fill="#d7d9d5" stroke="#d7d9d5" points="1118.04,-181.679 1128.64,-184.49 1122.97,-180.864 1127.9,-180.05 1127.9,-180.05 1127.9,-180.05 1122.97,-180.864 1127.17,-175.61 1118.04,-181.679 1118.04,-181.679"/>
</g>
<!-- AdminGroup -->
<g id="node14" class="node"><title>AdminGroup</title>
<ellipse fill="none" stroke="black" cx="376" cy="-167" rx="72.832" ry="18.3848"/>
<text text-anchor="middle" x="376" y="-163.4" font-family="Times Roman,serif" font-size="14.00">AdminGroup</text>
</g>
<!-- User&#45;&gt;AdminGroup -->
<g id="edge8" class="edge"><title>User&#45;&gt;AdminGroup</title>
<path fill="none" stroke="#0f1691" d="M575.77,-229.375C537.177,-217.325 476.395,-198.347 432.004,-184.486"/>
<ellipse fill="none" stroke="#0f1691" cx="579.645" cy="-230.585" rx="4.00001" ry="4.00001"/>
<polygon fill="#0f1691" stroke="#0f1691" points="431.775,-184.415 423.571,-177.139 427.003,-182.925 422.23,-181.435 422.23,-181.435 422.23,-181.435 427.003,-182.925 420.889,-185.73 431.775,-184.415 431.775,-184.415"/>
</g>
<!-- AdminGroupWorker -->
<g id="node16" class="node"><title>AdminGroupWorker</title>
<ellipse fill="none" stroke="black" cx="108" cy="-93" rx="108.187" ry="18.3848"/>
<text text-anchor="middle" x="108" y="-89.4" font-family="Times Roman,serif" font-size="14.00">AdminGroupWorker</text>
</g>
<!-- User&#45;&gt;AdminGroupWorker -->
<g id="edge10" class="edge"><title>User&#45;&gt;AdminGroupWorker</title>
<path fill="none" stroke="#5b171b" d="M570.553,-240.097C444.861,-236.99 81.1287,-224.701 46,-186 26.7832,-164.829 50.2261,-137.22 73.5881,-117.598"/>
<ellipse fill="none" stroke="#5b171b" cx="574.835" cy="-240.201" rx="4" ry="4"/>
<polygon fill="#5b171b" stroke="#5b171b" points="73.6573,-117.542 84.2684,-114.775 77.5517,-114.406 81.4461,-111.27 81.4461,-111.27 81.4461,-111.27 77.5517,-114.406 78.6237,-107.765 73.6573,-117.542 73.6573,-117.542"/>
</g>
<!-- BusinessGroup -->
<g id="node17" class="node"><title>BusinessGroup</title>
<ellipse fill="none" stroke="black" cx="318" cy="-93" rx="84.1457" ry="18.3848"/>
<text text-anchor="middle" x="318" y="-89.4" font-family="Times Roman,serif" font-size="14.00">BusinessGroup</text>
</g>
<!-- User&#45;&gt;BusinessGroup -->
<g id="edge12" class="edge"><title>User&#45;&gt;BusinessGroup</title>
<path fill="none" stroke="#5d6daa" d="M571.286,-236.793C488.903,-228.064 311.721,-207.037 294,-186 278.536,-167.641 288.052,-140.523 299.344,-120.301"/>
<ellipse fill="none" stroke="#5d6daa" cx="575.45" cy="-237.231" rx="4" ry="4"/>
<polygon fill="#5d6daa" stroke="#5d6daa" points="299.444,-120.135 308.437,-113.86 302.009,-115.843 304.575,-111.552 304.575,-111.552 304.575,-111.552 302.009,-115.843 300.712,-109.243 299.444,-120.135 299.444,-120.135"/>
</g>
<!-- GlobalAdminGeneralSetting -->
<g id="node19" class="node"><title>GlobalAdminGeneralSetting</title>
<ellipse fill="none" stroke="black" cx="717" cy="-167" rx="147.785" ry="18.3848"/>
<text text-anchor="middle" x="717" y="-163.4" font-family="Times Roman,serif" font-size="14.00">GlobalAdminGeneralSetting</text>
</g>
<!-- User&#45;&gt;GlobalAdminGeneralSetting -->
<g id="edge20" class="edge"><title>User&#45;&gt;GlobalAdminGeneralSetting</title>
<path fill="none" stroke="#353ed7" d="M640.938,-221.121C654.372,-211.562 670.554,-200.048 684.533,-190.102"/>
<ellipse fill="none" stroke="#353ed7" cx="637.305" cy="-223.706" rx="4.00002" ry="4.00002"/>
<ellipse fill="#353ed7" stroke="#353ed7" cx="687.937" cy="-187.68" rx="4.00002" ry="4.00002"/>
</g>
<!-- MainAdminGroup&#45;&gt;AdminGroupWorker -->
<g id="edge24" class="edge"><title>MainAdminGroup&#45;&gt;AdminGroupWorker</title>
<path fill="none" stroke="#b71a52" d="M136.124,-141.4C132.183,-134.617 127.912,-127.267 123.917,-120.393"/>
<ellipse fill="none" stroke="#b71a52" cx="138.14" cy="-144.868" rx="4.00002" ry="4.00002"/>
<polygon fill="#b71a52" stroke="#b71a52" points="123.723,-120.057 122.589,-109.15 121.21,-115.734 118.698,-111.411 118.698,-111.411 118.698,-111.411 121.21,-115.734 114.807,-113.672 123.723,-120.057 123.723,-120.057"/>
</g>
<!-- Role -->
<g id="node10" class="node"><title>Role</title>
<ellipse fill="none" stroke="black" cx="1373" cy="-241" rx="32.0265" ry="18.3848"/>
<text text-anchor="middle" x="1373" y="-237.4" font-family="Times Roman,serif" font-size="14.00">Role</text>
</g>
<!-- Role&#45;&gt;UserRole -->
<g id="edge26" class="edge"><title>Role&#45;&gt;UserRole</title>
<path fill="none" stroke="#f0ddc4" d="M1373,-214.309C1373,-208.377 1373,-202.061 1373,-196.04"/>
<ellipse fill="none" stroke="#f0ddc4" cx="1373" cy="-218.327" rx="4" ry="4"/>
<polygon fill="#f0ddc4" stroke="#f0ddc4" points="1373,-195.667 1377.5,-185.667 1373,-190.667 1373,-185.667 1373,-185.667 1373,-185.667 1373,-190.667 1368.5,-185.667 1373,-195.667 1373,-195.667"/>
</g>
<!-- GuestUser -->
<g id="node11" class="node"><title>GuestUser</title>
<ellipse fill="none" stroke="black" cx="774" cy="-334" rx="62.9325" ry="18.3848"/>
<text text-anchor="middle" x="774" y="-330.4" font-family="Times Roman,serif" font-size="14.00">GuestUser</text>
</g>
<!-- LocalAdmin -->
<g id="node12" class="node"><title>LocalAdmin</title>
<ellipse fill="none" stroke="black" cx="922" cy="-334" rx="67.1751" ry="18.3848"/>
<text text-anchor="middle" x="922" y="-330.4" font-family="Times Roman,serif" font-size="14.00">LocalAdmin</text>
</g>
<!-- AdminGroupConsultantWorker -->
<g id="node15" class="node"><title>AdminGroupConsultantWorker</title>
<ellipse fill="none" stroke="black" cx="620" cy="-93" rx="161.927" ry="18.3848"/>
<text text-anchor="middle" x="620" y="-89.4" font-family="Times Roman,serif" font-size="14.00">AdminGroupConsultantWorker</text>
</g>
<!-- ConsultantWorker&#45;&gt;AdminGroupConsultantWorker -->
<g id="edge28" class="edge"><title>ConsultantWorker&#45;&gt;AdminGroupConsultantWorker</title>
<path fill="none" stroke="#6857f4" d="M1119.88,-152.637C1109.83,-150.991 1099.69,-149.402 1090,-148 975.858,-131.476 845.564,-116.536 751.158,-106.411"/>
<ellipse fill="none" stroke="#6857f4" cx="1123.96" cy="-153.313" rx="4.00001" ry="4.00001"/>
<polygon fill="#6857f4" stroke="#6857f4" points="750.927,-106.386 741.462,-100.849 745.955,-105.855 740.984,-105.323 740.984,-105.323 740.984,-105.323 745.955,-105.855 740.505,-109.798 750.927,-106.386 750.927,-106.386"/>
</g>
<!-- AdminGroup&#45;&gt;AffillationKey -->
<g id="edge36" class="edge"><title>AdminGroup&#45;&gt;AffillationKey</title>
<path fill="none" stroke="#f433cf" d="M394.642,-141.984C400.639,-132.927 406.809,-122.369 411,-112 419.661,-90.5726 424.535,-64.711 427.172,-45.7046"/>
<ellipse fill="none" stroke="#f433cf" cx="392.383" cy="-145.288" rx="4.00002" ry="4.00002"/>
<ellipse fill="#f433cf" stroke="#f433cf" cx="427.687" cy="-41.7206" rx="4.00001" ry="4.00001"/>
</g>
<!-- AdminGroup&#45;&gt;AdminGroupConsultantWorker -->
<g id="edge30" class="edge"><title>AdminGroup&#45;&gt;AdminGroupConsultantWorker</title>
<path fill="none" stroke="#88bceb" d="M430.72,-150.404C466.966,-139.412 514.739,-124.923 553.222,-113.252"/>
<ellipse fill="none" stroke="#88bceb" cx="426.873" cy="-151.571" rx="4.00001" ry="4.00001"/>
<polygon fill="#88bceb" stroke="#88bceb" points="553.223,-113.252 564.099,-114.656 558.008,-111.801 562.793,-110.35 562.793,-110.35 562.793,-110.35 558.008,-111.801 561.487,-106.043 553.223,-113.252 553.223,-113.252"/>
</g>
<!-- AdminGroup&#45;&gt;AdminGroupWorker -->
<g id="edge32" class="edge"><title>AdminGroup&#45;&gt;AdminGroupWorker</title>
<path fill="none" stroke="#600190" d="M318.566,-151.141C276.424,-139.505 219.078,-123.671 174.873,-111.465"/>
<ellipse fill="none" stroke="#600190" cx="322.677" cy="-152.276" rx="4.00001" ry="4.00001"/>
<polygon fill="#600190" stroke="#600190" points="174.72,-111.423 166.278,-104.423 169.9,-110.092 165.081,-108.761 165.081,-108.761 165.081,-108.761 169.9,-110.092 163.883,-113.099 174.72,-111.423 174.72,-111.423"/>
</g>
<!-- AdminGroup&#45;&gt;BusinessGroup -->
<g id="edge34" class="edge"><title>AdminGroup&#45;&gt;BusinessGroup</title>
<path fill="none" stroke="#1d357d" d="M356.638,-142.297C350.94,-135.027 344.682,-127.043 338.893,-119.656"/>
<ellipse fill="none" stroke="#1d357d" cx="359.195" cy="-145.56" rx="4.00002" ry="4.00002"/>
<polygon fill="#1d357d" stroke="#1d357d" points="338.542,-119.209 335.915,-108.562 335.458,-115.273 332.373,-111.338 332.373,-111.338 332.373,-111.338 335.458,-115.273 328.831,-114.114 338.542,-119.209 338.542,-119.209"/>
</g>
<!-- AdminGroupConsultantWorker&#45;&gt;AffillationKey -->
<g id="edge38" class="edge"><title>AdminGroupConsultantWorker&#45;&gt;AffillationKey</title>
<path fill="none" stroke="#47abab" d="M566.42,-72.1322C538.682,-61.3286 505.084,-48.2433 478.172,-37.7619"/>
<ellipse fill="none" stroke="#47abab" cx="570.279" cy="-73.635" rx="4.00001" ry="4.00001"/>
<ellipse fill="#47abab" stroke="#47abab" cx="474.138" cy="-36.1905" rx="4.00001" ry="4.00001"/>
</g>
<!-- BusinessGroup&#45;&gt;AffillationKey -->
<g id="edge40" class="edge"><title>BusinessGroup&#45;&gt;AffillationKey</title>
<path fill="none" stroke="#412fd8" d="M351.709,-70.7281C365.933,-61.3303 382.449,-50.4176 396.635,-41.0445"/>
<ellipse fill="none" stroke="#412fd8" cx="348.164" cy="-73.0701" rx="4.00002" ry="4.00002"/>
<ellipse fill="#412fd8" stroke="#412fd8" cx="400.055" cy="-38.7853" rx="4.00002" ry="4.00002"/>
</g>
<!-- Currency -->
<g id="node18" class="node"><title>Currency</title>
<ellipse fill="none" stroke="black" cx="1063" cy="-334" rx="56.0679" ry="18.3848"/>
<text text-anchor="middle" x="1063" y="-330.4" font-family="Times Roman,serif" font-size="14.00">Currency</text>
</g>
<!-- Language -->
<g id="node20" class="node"><title>Language</title>
<ellipse fill="none" stroke="black" cx="1196" cy="-334" rx="58.8978" ry="18.3848"/>
<text text-anchor="middle" x="1196" y="-330.4" font-family="Times Roman,serif" font-size="14.00">Language</text>
</g>
</g>
</svg>
